<svg width="128" height="128" viewBox="0 0 128 128" xmlns="http://www.w3.org/2000/svg">
  <!-- Frame -->
  <rect x="12" y="12" width="104" height="104" rx="10" ry="10"
        fill="white" stroke="black" stroke-width="3" />

  <!-- Top toolbar -->
  <rect x="20" y="20" width="88" height="12"
        fill="white" stroke="black" stroke-width="2" />
  <circle cx="26" cy="26" r="2.5" fill="black" />
  <circle cx="34" cy="26" r="2.5" fill="black" />
  <circle cx="42" cy="26" r="2.5" fill="black" />

  <!-- Workspace area -->
  <rect x="20" y="36" width="88" height="64"
        fill="white" stroke="black" stroke-width="2" />

  <!-- Grid (simplified) -->
  <path d="M26 44 H102 M26 52 H102 M26 60 H102 M26 68 H102 M26 76 H102 M26 84 H102 M26 92 H102"
        stroke="black" stroke-width="0.8" opacity="0.4" />
  <path d="M34 40 V100 M42 40 V100 M50 40 V100 M58 40 V100 M66 40 V100 M74 40 V100 M82 40 V100 M90 40 V100"
        stroke="black" stroke-width="0.8" opacity="0.4" />

  <!-- Blocks (objects) -->
  <!-- Main cube -->
  <rect x="38" y="62" width="20" height="14"
        fill="white" stroke="black" stroke-width="2" />
  <!-- Taller block -->
  <rect x="64" y="54" width="16" height="22"
        fill="white" stroke="black" stroke-width="2" />
  <!-- Small block -->
  <rect x="86" y="70" width="10" height="10"
        fill="white" stroke="black" stroke-width="2" />

  <!-- Selection outline around main cube -->
  <rect x="36" y="60" width="24" height="18"
        fill="none" stroke="black" stroke-width="1.5" stroke-dasharray="3 3" />

  <!-- Cursor arrow (pointer) -->
  <polygon points="32,50 42,72 38,70 34,80 30,78 34,68 28,66"
           fill="black" />

  <!-- Transform handle (rotation / move) -->
  <circle cx="48" cy="58" r="3"
          fill="white" stroke="black" stroke-width="1.5" />
</svg>